<?xml version="1.0" standalone="no"?><!DOCTYPE svg PUBLIC "-//W3C//DTD SVG 1.1//EN" "http://www.w3.org/Graphics/SVG/1.1/DTD/svg11.dtd"><svg t="1606961216399" class="icon" viewBox="0 0 1024 1024" version="1.1" xmlns="http://www.w3.org/2000/svg" p-id="2009" xmlns:xlink="http://www.w3.org/1999/xlink" width="64" height="64"><defs><style type="text/css"></style></defs><path d="M507.8304 786.1904L311.792 905.928c-26.3936 16.1216-60.8592 7.7936-76.9808-18.6a56 56 0 0 1-6.6816-42.184l53.2992-223.4432a8 8 0 0 0-2.576-7.9312l-174.4576-149.44c-23.488-20.1216-26.2192-55.472-6.0992-78.9616a56 56 0 0 1 38.056-19.3904l228.976-18.3568a8 8 0 0 0 6.7472-4.9024l88.2176-212.096c11.8768-28.5584 44.656-42.08 73.2112-30.2016a56 56 0 0 1 30.2 30.2L651.9232 342.72a8 8 0 0 0 6.7472 4.9024l228.976 18.3568c30.8304 2.472 53.8176 29.4672 51.3472 60.296a56 56 0 0 1-19.3904 38.0544l-174.456 149.44a8 8 0 0 0-2.5776 7.9328l53.2992 223.4432c7.176 30.0848-11.3952 60.288-41.4784 67.4656a56 56 0 0 1-42.184-6.6816L516.1696 786.192a8 8 0 0 0-8.3392 0z m-25.0208-40.9632a56 56 0 0 1 58.3808 0l196.0368 119.7376a8 8 0 0 0 11.952-8.6832l-53.2992-223.4432a56 56 0 0 1 18.04-55.5232l174.456-149.44a8 8 0 0 0-4.5648-14.0512l-228.976-18.3568a56 56 0 0 1-47.232-34.3152L519.3872 149.056a8 8 0 0 0-14.7744 0L416.3968 361.152a56 56 0 0 1-47.232 34.3152L140.1904 413.824a8 8 0 0 0-4.5648 14.0512l174.456 149.44a56 56 0 0 1 18.04 55.5232l-53.2992 223.4432a8 8 0 0 0 11.952 8.6832l196.0368-119.7376z" fill="" p-id="2010"></path></svg>