<?xml version="1.0" standalone="no"?><!DOCTYPE svg PUBLIC "-//W3C//DTD SVG 1.1//EN" "http://www.w3.org/Graphics/SVG/1.1/DTD/svg11.dtd"><svg t="1606961204258" class="icon" viewBox="0 0 1024 1024" version="1.1" xmlns="http://www.w3.org/2000/svg" p-id="1862" xmlns:xlink="http://www.w3.org/1999/xlink" width="64" height="64"><defs><style type="text/css"></style></defs><path d="M896 128c35.3456 0 64 28.6544 64 64v640c0 35.3456-28.6544 64-64 64H128c-35.3456 0-64-28.6544-64-64V192c0-35.3456 28.6544-64 64-64h768z m0 48H128c-8.8368 0-16 7.1632-16 16v640c0 8.8368 7.1632 16 16 16h768c8.8368 0 16-7.1632 16-16V192c0-8.8368-7.1632-16-16-16z m-544 144c61.856 0 112 50.144 112 112 0 31.8576-13.3008 60.608-34.6528 81.0032C492.3232 542.2144 536 606.0064 536 680c0 13.2544-10.7456 24-24 24-13.2544 0-24-10.7456-24-24 0-75.1104-60.8896-136-136-136s-136 60.8896-136 136c0 13.2544-10.7456 24-24 24-13.2544 0-24-10.7456-24-24 0-73.9936 43.6752-137.7856 106.6528-167.0016C253.3008 492.608 240 463.856 240 432c0-61.856 50.144-112 112-112z m480 336c13.2544 0 24 10.7456 24 24 0 13.2544-10.7456 24-24 24h-144c-13.2544 0-24-10.7456-24-24 0-13.2544 10.7456-24 24-24h144z m0-168c13.2544 0 24 10.7456 24 24 0 13.2544-10.7456 24-24 24H600c-13.2544 0-24-10.7456-24-24 0-13.2544 10.7456-24 24-24h232z m-480-120c-35.3456 0-64 28.6544-64 64s28.6544 64 64 64 64-28.6544 64-64-28.6544-64-64-64z m480-48c13.2544 0 24 10.7456 24 24 0 13.2544-10.7456 24-24 24H600c-13.2544 0-24-10.7456-24-24 0-13.2544 10.7456-24 24-24h232z" fill="" p-id="1863"></path></svg>