<?xml version="1.0" standalone="no"?><!DOCTYPE svg PUBLIC "-//W3C//DTD SVG 1.1//EN" "http://www.w3.org/Graphics/SVG/1.1/DTD/svg11.dtd"><svg t="1606880236679" class="icon" viewBox="0 0 1024 1024" version="1.1" xmlns="http://www.w3.org/2000/svg" p-id="1619" width="32" height="32" xmlns:xlink="http://www.w3.org/1999/xlink"><defs><style type="text/css"></style></defs><path d="M776 430.4c-12.8 0-24 11.2-24 24v272c0 17.6-14.4 33.6-33.6 33.6H289.6c-17.6 0-33.6-14.4-33.6-33.6V297.6c0-17.6 14.4-33.6 33.6-33.6h272c12.8 0 24-11.2 24-24s-11.2-24-24-24h-272c-44.8 0-81.6 36.8-81.6 81.6v428.8c0 44.8 36.8 81.6 81.6 81.6h428.8c44.8 0 81.6-36.8 81.6-81.6v-272c0-12.8-11.2-24-24-24z" p-id="1620"></path><path d="M809.6 222.4c-9.6-9.6-24-9.6-33.6 0l-320 320c-9.6 9.6-9.6 24 0 33.6 4.8 4.8 11.2 6.4 17.6 6.4s12.8-1.6 17.6-6.4l320-320c6.4-8 6.4-24-1.6-33.6z" p-id="1621"></path></svg>