<svg xmlns="http://www.w3.org/2000/svg" width="17.688" height="17.688" viewBox="0 0 17.688 17.688">
  <g id="组_2659" data-name="组 2659" transform="translate(-122 -122)">
    <path id="路径_2592" data-name="路径 2592" d="M138.993,127.4a8.871,8.871,0,1,0,.7,3.443A8.815,8.815,0,0,0,138.993,127.4Zm-8.149,10.926a7.484,7.484,0,1,1,7.484-7.484A7.492,7.492,0,0,1,130.844,138.328Z"/>
    <path id="路径_2593" data-name="路径 2593" d="M390.552,284.033a2.821,2.821,0,0,0-2.818,2.818.68.68,0,0,0,1.361,0,1.457,1.457,0,1,1,2.915,0,1.442,1.442,0,0,1-.733,1.259.676.676,0,0,0-.1.065,2.821,2.821,0,0,0-1.311,2.378.829.829,0,0,0,.024.207.68.68,0,0,0,1.337-.23,1.457,1.457,0,0,1,.726-1.234l.006,0,.036-.023.014-.01.024-.018a2.815,2.815,0,0,0-1.483-5.209Z" transform="translate(-259.708 -158.358)"/>
    <path id="路径_2594" data-name="路径 2594" d="M476.675,638.783m-.816,0a.816.816,0,1,0,.816-.816A.816.816,0,0,0,475.859,638.783Z" transform="translate(-345.834 -504.266)"/>
  </g>
</svg>
