<svg xmlns="http://www.w3.org/2000/svg" width="65.829" height="80.458" viewBox="0 0 65.829 80.458">
  <path id="路径_1325" data-name="路径 1325" d="M160.915,42.667a23.771,23.771,0,0,1,23.772,23.772v9.143h2.743a6.4,6.4,0,0,1,6.4,6.4v34.743a6.4,6.4,0,0,1-6.4,6.4H134.4a6.4,6.4,0,0,1-6.4-6.4V81.981a6.4,6.4,0,0,1,6.4-6.4h2.743V66.438a23.771,23.771,0,0,1,23.772-23.772Zm26.514,38.4H134.4a.914.914,0,0,0-.914.914v34.743a.914.914,0,0,0,.914.914h53.029a.914.914,0,0,0,.914-.914V81.981A.914.914,0,0,0,187.429,81.067ZM160.915,91.124a2.743,2.743,0,0,1,2.743,2.743v10.972a2.743,2.743,0,1,1-5.486,0V93.867A2.743,2.743,0,0,1,160.915,91.124Zm0-42.972a18.285,18.285,0,0,0-18.286,18.286v9.143H179.2V66.438a18.285,18.285,0,0,0-18.286-18.286Z" transform="translate(-128 -42.667)" fill="#ddd"/>
</svg>
