<?xml version="1.0" standalone="no"?><!DOCTYPE svg PUBLIC "-//W3C//DTD SVG 1.1//EN" "http://www.w3.org/Graphics/SVG/1.1/DTD/svg11.dtd"><svg t="1606961555401" class="icon" viewBox="0 0 1024 1024" version="1.1" xmlns="http://www.w3.org/2000/svg" p-id="3173" xmlns:xlink="http://www.w3.org/1999/xlink" width="64" height="64"><defs><style type="text/css"></style></defs><path d="M511.998049 66.069397c-246.273427 0-445.926662 199.653235-445.926662 445.926462s199.653035 445.931458 445.926662 445.931458c246.296411 0 445.926462-199.658032 445.926462-445.931458S758.29446 66.069397 511.998049 66.069397zM511.998049 920.100164c-225.395582 0-408.104305-182.709523-408.104305-408.104305 0-225.395582 182.708723-408.105305 408.104305-408.105305 225.41357 0 408.125291 182.709723 408.125291 408.105305C920.12334 737.410428 737.411619 920.100164 511.998049 920.100164zM816.163025 803.452451 233.172693 196.400632l-25.336822 23.633976 583.593923 607.556477L816.163025 803.452451z" p-id="3174"></path></svg>