<?xml version="1.0" standalone="no"?><!DOCTYPE svg PUBLIC "-//W3C//DTD SVG 1.1//EN" "http://www.w3.org/Graphics/SVG/1.1/DTD/svg11.dtd"><svg t="1606961780438" class="icon" viewBox="0 0 1024 1024" version="1.1" xmlns="http://www.w3.org/2000/svg" p-id="4125" xmlns:xlink="http://www.w3.org/1999/xlink" width="64" height="64"><defs><style type="text/css"></style></defs><path d="M766 322v380c0 11-9 20-20 20H278c-11 0-20-9-20-20V322c0-11 9-20 20-20h468c11 0 20 9 20 20z m-498-50c-22.1 0-40 17.9-40 40v400c0 22.1 17.9 40 40 40h488c22.1 0 40-17.9 40-40V312c0-22.1-17.9-40-40-40H268z" fill="" p-id="4126"></path><path d="M258 462h150c27.6 0 50 22.4 50 50s-22.4 50-50 50H258V462m-30-30v160h180c44.2 0 80-35.8 80-80s-35.8-80-80-80H228z" p-id="4127"></path><path d="M413 510m-15 0a15 15 0 1 0 30 0 15 15 0 1 0-30 0Z" fill="" p-id="4128"></path></svg>