<?xml version="1.0" standalone="no"?><!DOCTYPE svg PUBLIC "-//W3C//DTD SVG 1.1//EN" "http://www.w3.org/Graphics/SVG/1.1/DTD/svg11.dtd"><svg t="1606961341670" class="icon" viewBox="0 0 1024 1024" version="1.1" xmlns="http://www.w3.org/2000/svg" p-id="2303" xmlns:xlink="http://www.w3.org/1999/xlink" width="64" height="64"><defs><style type="text/css"></style></defs><path d="M896 128c35.3456 0 64 28.6544 64 64v512c0 35.3456-28.6544 64-64 64H456.432l-149.2752 118.1024c-20.096 15.9008-49.2768 12.4992-65.1776-7.5984a46.4 46.4 0 0 1-10.0112-28.7888V768H128c-35.3456 0-64-28.6544-64-64V192c0-35.3456 28.6544-64 64-64h768z m0 48H128c-8.8368 0-16 7.1632-16 16v512c0 8.8368 7.1632 16 16 16h127.968c13.2544 0 24 10.7456 24 24v102.408l153.2272-121.2288a24 24 0 0 1 14.8912-5.1792H896c8.8368 0 16-7.1632 16-16V192c0-8.8368-7.1632-16-16-16zM512 400c26.5104 0 48 21.4896 48 48 0 26.5104-21.4896 48-48 48-26.5104 0-48-21.4896-48-48 0-26.5104 21.4896-48 48-48z m-192 0c26.5104 0 48 21.4896 48 48 0 26.5104-21.4896 48-48 48-26.5104 0-48-21.4896-48-48 0-26.5104 21.4896-48 48-48z m384 0c26.5104 0 48 21.4896 48 48 0 26.5104-21.4896 48-48 48-26.5104 0-48-21.4896-48-48 0-26.5104 21.4896-48 48-48z" fill="" p-id="2304"></path></svg>