<svg t="1606967027483" class="icon" viewBox="0 0 1024 1024" version="1.1" xmlns="http://www.w3.org/2000/svg" p-id="7588" xmlns:xlink="http://www.w3.org/1999/xlink" width="64" height="64"><defs><style type="text/css"></style></defs><path d="M197.371937 390.339048a23.568254 23.568254 0 0 1 0-47.169016h141.897142a165.042794 165.042794 0 0 1 164.571429-153.112381c86.503619 0 158.313651 66.80381 164.571429 153.112381h141.864634a23.568254 23.568254 0 0 1 0 47.169016h-49.168254L720.538413 782.726095c-4.047238 38.424381-34.295873 67.486476-70.298413 67.486476H357.376c-36.00254 0-66.251175-29.062095-70.217143-67.486476l-40.699936-392.370793h-49.086984z m136.695873 386.779428a24.218413 24.218413 0 0 0 23.356952 22.495492h292.798984a24.218413 24.218413 0 0 0 23.438222-22.495492l40.049778-386.779428H293.936762l40.147301 386.779428z m287.045079-433.948444a117.873778 117.873778 0 0 0-117.288635-106.252191 117.873778 117.873778 0 0 0-117.272381 106.252191h234.544762z m-41.837714 365.519238l-28.298159-47.136508h34.490921l-40.846223-70.769778 26.737778-48.079238 75.402159 130.616889a23.568254 23.568254 0 0 1-20.463746 35.368635H579.291429z m-47.136508 0h-150.836826a23.552 23.552 0 0 1-20.414984-35.368635l23.519492-40.732445 54.987175-0.94273-17.245461 29.907302h81.676191l28.298159 47.136508z m15.652571-206.831746l-26.721524 48.111746-17.24546-29.907302-40.846222 70.721016-54.938413 0.958984 75.369651-130.665651a23.552 23.552 0 0 1 40.829968 0l23.568254 40.781207z" p-id="7589"></path></svg>