<?xml version="1.0" standalone="no"?><!DOCTYPE svg PUBLIC "-//W3C//DTD SVG 1.1//EN" "http://www.w3.org/Graphics/SVG/1.1/DTD/svg11.dtd"><svg t="1606972172229" class="icon" viewBox="0 0 1024 1024" version="1.1" xmlns="http://www.w3.org/2000/svg" p-id="10382" width="48" height="48" xmlns:xlink="http://www.w3.org/1999/xlink"><defs><style type="text/css"></style></defs><path d="M864.2 235.1L713.7 754.7 532.9 669s-22.9 0-28.6 16c-5.8 16 8.1 27.2 8.1 27.2l183.5 87c26.5 12.6 54.6-0.2 62.7-28.3l163.9-565.8c8.2-28.2-7.5-42-34.3-31.3L119.7 483c-27.1 10.9-27.7 29.9-0.9 42.6l208.1 98.6s20.5 5 28.3-12.9c7.9-17.9-7.9-30.3-7.9-30.3l-157.6-74.7 674.5-271.2z m-431 593.8l6.6-128.6c1.5-23.2 17.8-57.5 34.9-73.6l378-353.5 10.6-37.6-70.6 28.3L442 591.8c-25.9 24.3-47.5 70-49.8 105.3L385 828.8s6.9 18.2 23.9 18.2 24.3-18.1 24.3-18.1z m0 0" fill="" p-id="10383"></path></svg>