<?xml version="1.0" standalone="no"?><!DOCTYPE svg PUBLIC "-//W3C//DTD SVG 1.1//EN" "http://www.w3.org/Graphics/SVG/1.1/DTD/svg11.dtd"><svg t="1606544392612" class="icon" viewBox="0 0 1024 1024" version="1.1" xmlns="http://www.w3.org/2000/svg" p-id="1816" width="32" height="32" xmlns:xlink="http://www.w3.org/1999/xlink"><defs><style type="text/css"></style></defs><path d="M880.937189 795.19692c-0.124843-0.008186-0.225127-0.01842-0.341784 0L169.494811 795.19692c-9.171893 0-17.641799-4.894474-22.219047-12.82919-4.585435-7.936763-4.585435-17.72571 0-25.660426L502.825548 140.862191c4.578272-7.93574 13.048177-12.830213 22.219047-12.830213 9.171893 0 17.641799 4.894474 22.219047 12.830213l353.697601 612.619652c3.524267 4.3951 5.637394 9.983375 5.637394 16.054651C906.597615 783.713378 895.114073 795.19692 880.937189 795.19692zM213.940069 743.878115l622.208031 0L525.044596 205.012234 213.940069 743.878115z" p-id="1817"></path><path d="M553.780057 618.015545c0 8.018627-2.790556 14.867616-8.353248 20.547988-5.564739 5.680373-12.362562 8.520047-20.382213 8.520047-8.018627 0-14.817474-2.839675-20.38119-8.520047-5.562692-5.680373-8.352225-12.529361-8.352225-20.547988s2.789533-14.817474 8.352225-20.382213c5.563716-5.562692 12.362562-8.352225 20.38119-8.352225 8.019651 0 14.817474 2.790556 20.382213 8.352225C550.989501 603.197048 553.780057 609.996918 553.780057 618.015545zM520.534885 563.889811c-0.88516-23.173792-4.977361-48.331775-12.279674-75.511811-7.300266-27.181059-10.94119-43.051515-10.94119-47.611367 0-11.912307 2.421142-21.048385 7.267521-27.395954 4.844332-6.348592 11.778254-9.523911 20.798698-9.523911 8.469905 0 15.153118 2.889817 20.047592 8.686846 4.89345 5.798053 7.349385 13.81668 7.349385 24.056905 0 8.019651-3.558036 26.028816-10.691503 54.04387-7.132444 28.01403-10.907421 52.422953-11.358699 73.256444L520.534885 563.890834z" p-id="1818"></path></svg>