<svg xmlns="http://www.w3.org/2000/svg" width="119.864" height="127.801" viewBox="0 0 119.864 127.801">
  <path id="路径_1323" data-name="路径 1323" d="M57.673,119.376H15.818a7.207,7.207,0,0,1-7.3-7.315A47.274,47.274,0,0,1,51.232,65.246H56.26c5.516-.437,13.318-1.867,17.4-5.516l1.867-1.362A32.726,32.726,0,0,0,54.881,0C37.9,0,23.2,14.7,23.2,32.623A33.151,33.151,0,0,0,35.594,58.351l2.287,1.362-2.287.925A55.226,55.226,0,0,0,.263,112.061,15.475,15.475,0,0,0,15.869,127.7H57.639a4.024,4.024,0,0,0,3.649-4.153c.034-3.245-2.253-4.17-3.616-4.17Zm-26.3-86.753A24.366,24.366,0,1,1,55.739,56.989,24.539,24.539,0,0,1,31.373,32.623Zm85.072,58.183h-.74V84.886A19.841,19.841,0,0,0,95.828,64.909c-11.048,0-19.876,8.879-19.876,19.237v6.659h-.74a3.491,3.491,0,0,0-3.683,3.7v29.6a3.491,3.491,0,0,0,3.683,3.7h41.233a3.961,3.961,0,0,0,3.683-3.7v-29.6a3.491,3.491,0,0,0-3.683-3.7ZM83.317,84.146a12.511,12.511,0,1,1,25.022,0v6.659H83.317V84.146ZM112.762,120.4H78.895V98.2h33.867Zm-16.934-4.439c2.2,0,3.683-1.48,3.683-2.96v-7.4a3.491,3.491,0,0,0-3.683-3.7c-2.2,0-3.683,1.48-3.683,2.96v7.4a3.491,3.491,0,0,0,3.683,3.7Z" transform="translate(-0.263)" fill="#ddd"/>
</svg>
