<svg viewBox="0 0 1024 1024" xmlns="http://www.w3.org/2000/svg" width="32" height="32"><path d="M512 612.9c-69.2 0-134.1-26.6-182.8-74.9-48.9-48.5-75.8-113.2-75.8-182.3 0-69.1 26.9-134.1 75.7-182.9C377.9 124 442.9 97.1 512 97.1c69.2 0 134.1 26.6 182.8 74.9 48.9 48.5 75.8 113.2 75.8 182.3 0 69.1-26.9 134.1-75.7 182.9-48.8 48.8-113.8 75.7-182.9 75.7z m0-455.3c-109.2 0-198.1 88.9-198.1 198.1 0 108.5 88.9 196.7 198.1 196.7 109.2 0 198.1-88.9 198.1-198.1 0-108.5-88.9-196.7-198.1-196.7z"></path><path d="M919.1 926.9H104.9c-9.8 0-19.1-4.8-24.7-12.8-5.7-8-7.1-18.3-3.7-27.6l61-170.2c17.7-49.5 58.1-87.3 108.2-101.2l124.7-35.4c0.1 0 0.2-0.1 0.3-0.1 93.2-25.6 191-25.5 282.8 0h0.1L778.3 615c50.1 13.9 90.6 51.7 108.3 101.2l61 170.2c3.3 9.3 1.9 19.6-3.7 27.6-5.8 8.1-15 12.9-24.8 12.9z m-771.2-60.5h728.2l-46.5-129.8c-11.1-31.1-36.3-54.7-67.5-63.3-0.1 0-0.1 0-0.2-0.1l-124.8-35.4c-81.2-22.6-167.7-22.6-250.3 0l-124.7 35.4c-0.1 0-0.1 0-0.2 0.1-31.2 8.6-56.4 32.3-67.5 63.3l-46.5 129.8zM509.9 491.7c-41.7 0-81.1-20.1-105.4-53.7-9.8-13.5-6.7-32.5 6.8-42.2 13.5-9.8 32.5-6.7 42.2 6.8 12.9 17.9 34 28.6 56.3 28.6 21.7 0 43.8-11.2 56.3-28.6 0.1-0.1 0.2-0.3 0.3-0.4l4.3-5.7c10-13.4 29-16.1 42.3-6.1 13.4 10 16.1 29 6.1 42.3l-4.1 5.5c-23.9 33.1-64.1 53.5-105.1 53.5z"></path></svg>