<svg xmlns="http://www.w3.org/2000/svg" width="117.966" height="128.612" viewBox="0 0 117.966 128.612">
  <g id="组_2624" data-name="组 2624" transform="translate(-315.136 -254.22)">
    <path id="路径_1324" data-name="路径 1324" d="M555.659,557.657a29.233,29.233,0,1,0,29.233,29.234A29.234,29.234,0,0,0,555.659,557.657Zm0,51.158a21.924,21.924,0,1,1,21.925-21.924A21.95,21.95,0,0,1,555.659,608.815Zm3.654-23.437v-13.1a3.654,3.654,0,0,0-7.309,0V586.9a3.626,3.626,0,0,0,1.075,2.575l7.3,7.306a3.655,3.655,0,1,0,5.169-5.169Z" transform="translate(-151.789 -233.291)" fill="#008df0"/>
    <path id="路径_1323" data-name="路径 1323" d="M57.673,119.376H15.818a7.207,7.207,0,0,1-7.3-7.315A47.274,47.274,0,0,1,51.232,65.246H56.26c5.516-.437,13.318-1.867,17.4-5.516l1.867-1.362A32.726,32.726,0,0,0,54.881,0C37.9,0,23.2,14.7,23.2,32.623A33.151,33.151,0,0,0,35.594,58.351l2.287,1.362-2.287.925A55.226,55.226,0,0,0,.263,112.061,15.475,15.475,0,0,0,15.869,127.7H57.639a4.024,4.024,0,0,0,3.649-4.153c.034-3.245-2.253-4.17-3.616-4.17Zm-26.3-86.753A24.366,24.366,0,1,1,55.739,56.989,24.539,24.539,0,0,1,31.373,32.623Z" transform="translate(314.873 254.22)" fill="#008df0"/>
  </g>
</svg>
